<?xml version="1.0" encoding="UTF-8" standalone="no"?>
<!DOCTYPE svg PUBLIC "-//W3C//DTD SVG 1.1//EN" "http://www.w3.org/Graphics/SVG/1.1/DTD/svg11.dtd">
<svg width="100%" height="100%" viewBox="0 0 700 700" version="1.1" xmlns="http://www.w3.org/2000/svg" xmlns:xlink="http://www.w3.org/1999/xlink" xml:space="preserve" xmlns:serif="http://www.serif.com/" style="fill-rule:evenodd;clip-rule:evenodd;stroke-linejoin:round;stroke-miterlimit:2;">
    <g transform="matrix(1,0,0,1,79.7285,79.7285)">
        <g>
            <path d="M129.989,378.772C138.263,378.772 145.35,373.766 151.232,363.736C205.045,268.313 233.038,218.643 235.223,214.708L181.63,121.25C175.963,111.446 168.772,106.543 160.063,106.543L81.953,106.543C76.934,106.543 73.458,108.177 71.494,111.445C69.095,114.713 69.205,118.746 71.819,123.532L124.432,214.708C124.646,214.94 124.646,215.039 124.432,215.039L41.75,361.453C39.578,365.602 39.578,369.519 41.75,373.21C43.923,376.925 47.307,378.772 51.879,378.772L129.989,378.772Z" style="fill-rule:nonzero;"/>
            <path d="M488.492,0L409.734,0C401.239,0 394.262,4.902 388.822,14.707C277.053,212.97 219.206,315.596 215.283,322.555L326.067,525.837C331.294,535.641 338.485,540.543 347.634,540.543L425.738,540.543C430.529,540.543 434.018,538.909 436.197,535.641C438.369,531.926 438.265,527.893 435.872,523.542L326.073,322.555L326.073,322.237L498.627,16.995C501.02,12.424 501.02,8.403 498.627,4.908C496.662,1.634 493.284,0 488.492,0Z" style="fill-rule:nonzero;"/>
        </g>
    </g>
</svg>
